<?xml version="1.0" standalone="no"?>
<!DOCTYPE svg PUBLIC "-//W3C//DTD SVG 20010904//EN"
 "http://www.w3.org/TR/2001/REC-SVG-20010904/DTD/svg10.dtd">
<svg version="1.0" xmlns="http://www.w3.org/2000/svg"
 width="1220.000000pt" height="1220.000000pt" viewBox="0 0 1220.000000 1220.000000"
 preserveAspectRatio="xMidYMid meet">

<g transform="translate(0.000000,1220.000000) scale(0.100000,-0.100000)"
fill="#000000" stroke="none">
<path d="M0 6100 l0 -6100 6100 0 6100 0 0 6100 0 6100 -6100 0 -6100 0 0
-6100z m6501 4184 l36 -6 -8 -41 c-4 -23 -28 -134 -53 -247 -24 -113 -88 -405
-141 -650 -53 -245 -128 -589 -166 -765 -38 -176 -97 -444 -129 -595 -33 -151
-94 -430 -135 -620 -67 -307 -111 -510 -230 -1060 -18 -85 -50 -229 -70 -320
-19 -91 -49 -226 -65 -300 -16 -74 -48 -218 -70 -320 -22 -102 -63 -291 -91
-420 -93 -435 -120 -554 -154 -685 -127 -489 -348 -868 -642 -1105 -265 -214
-577 -327 -1000 -364 -59 -5 -64 -4 -106 28 -24 18 -66 57 -93 87 -93 102
-230 244 -381 399 -183 187 -323 362 -323 403 0 22 4 27 18 23 20 -6 158 -39
255 -61 113 -25 305 -45 437 -45 370 1 624 149 799 468 74 134 113 258 180
567 95 434 126 576 180 825 33 151 76 347 95 435 19 88 51 233 70 323 20 89
52 235 71 325 20 89 47 212 60 272 13 61 40 183 60 273 19 89 51 233 70 320
19 86 75 346 125 577 50 231 123 564 161 740 38 176 83 381 99 455 16 74 48
218 70 320 40 183 71 325 130 594 16 77 33 143 37 147 5 4 80 15 168 23 157
14 649 15 736 0z m443 -2086 c3 -13 21 -183 41 -378 36 -355 62 -606 90 -880
46 -433 67 -644 85 -820 11 -107 31 -303 44 -435 28 -265 37 -349 66 -635 11
-107 29 -280 40 -385 19 -181 50 -552 50 -605 0 -15 93 157 223 415 123 242
253 496 289 565 36 69 130 249 208 400 78 151 173 334 210 405 37 72 131 253
209 403 77 149 203 392 280 540 76 147 207 400 291 562 84 162 178 345 210
405 31 61 99 190 149 288 l92 177 93 0 93 0 35 -53 c20 -29 45 -71 57 -93 12
-21 39 -66 59 -99 57 -89 138 -271 167 -373 l26 -90 -37 -73 c-20 -41 -65
-126 -99 -189 -34 -63 -86 -160 -115 -215 -29 -55 -101 -190 -160 -300 -59
-110 -149 -279 -200 -375 -51 -96 -139 -260 -195 -365 -56 -104 -133 -248
-170 -320 -37 -71 -71 -134 -75 -140 -4 -5 -53 -95 -108 -200 -114 -217 -139
-264 -514 -965 -151 -283 -302 -567 -336 -630 -33 -63 -162 -304 -285 -535
l-225 -420 -400 -3 -400 -2 -6 27 c-2 16 -7 55 -11 88 -3 33 -12 119 -20 190
-8 72 -31 276 -51 455 -19 179 -50 465 -69 635 -30 274 -160 1451 -261 2370
-19 176 -50 460 -69 630 -19 171 -39 353 -45 405 -5 52 -23 216 -40 364 -16
148 -30 270 -30 272 0 2 182 4 405 4 l405 0 4 -22z"/>
</g>
</svg>
